<?xml version="1.0" standalone="no"?>
<!DOCTYPE svg PUBLIC "-//W3C//DTD SVG 20010904//EN"
 "http://www.w3.org/TR/2001/REC-SVG-20010904/DTD/svg10.dtd">
<svg version="1.0" xmlns="http://www.w3.org/2000/svg"
 width="1000.000000pt" height="752.000000pt" viewBox="0 0 1000.000000 752.000000"
 preserveAspectRatio="xMidYMid meet">

<g transform="translate(0.000000,752.000000) scale(0.100000,-0.100000)"
fill="#000000" stroke="none">
<path d="M3645 5535 c-246 -39 -437 -112 -622 -236 -111 -75 -238 -203 -253
-256 -25 -84 -16 -103 213 -450 132 -201 225 -332 246 -347 68 -50 170 -39
227 25 12 13 100 168 196 344 97 176 230 419 296 541 66 121 123 231 127 245
10 40 -16 101 -54 126 -31 21 -44 23 -165 22 -72 -1 -167 -7 -211 -14z"/>
<path d="M6145 5522 c-88 -42 -145 -143 -130 -231 3 -21 63 -143 131 -272 69
-129 173 -323 232 -432 82 -155 115 -207 150 -238 45 -39 120 -69 172 -69 56
0 128 30 173 73 47 43 315 438 344 504 9 22 16 65 16 103 1 93 -30 156 -107
226 -213 194 -543 329 -851 349 -76 5 -96 3 -130 -13z"/>
<path d="M4125 4561 c-47 -22 -99 -74 -114 -114 -6 -16 -11 -53 -11 -83 0
-121 86 -204 211 -204 64 0 110 22 154 72 89 105 55 266 -68 324 -62 28 -118
30 -172 5z"/>
<path d="M5689 4547 c-24 -13 -57 -43 -74 -66 -27 -39 -30 -50 -30 -121 0 -71
3 -82 30 -121 38 -53 93 -82 164 -86 99 -6 186 59 213 160 44 168 -147 316
-303 234z"/>
<path d="M6322 3884 c-104 -28 -107 -31 -121 -136 -43 -330 -255 -580 -567
-670 -64 -18 -103 -23 -209 -23 -140 1 -210 14 -318 62 l-58 26 -57 -60 c-213
-225 -515 -304 -812 -212 -163 51 -315 168 -410 314 -51 81 -82 110 -146 140
-194 92 -436 8 -533 -183 -82 -162 -54 -337 74 -471 l55 -58 -32 -68 c-86
-185 -21 -405 152 -514 75 -48 141 -64 239 -59 160 7 274 86 352 241 49 97
117 168 201 207 69 33 64 32 423 95 143 25 283 50 310 55 28 6 138 26 245 45
107 19 220 39 250 45 30 6 170 31 309 56 238 42 259 44 322 34 92 -16 172 -56
250 -127 78 -71 136 -101 224 -116 218 -37 427 115 466 341 22 123 -22 254
-116 348 l-55 56 32 66 c31 62 33 73 33 172 0 97 -2 110 -32 172 -85 179 -283
273 -471 222z"/>
<path d="M4703 3816 c-26 -23 -28 -29 -27 -98 1 -89 23 -138 88 -195 59 -52
101 -63 237 -63 99 0 121 3 164 24 91 43 138 112 151 218 7 64 -12 113 -52
128 -14 6 -140 10 -279 10 l-254 0 -28 -24z"/>
<path d="M5500 3471 c-25 -47 36 -83 64 -38 8 12 8 22 0 35 -16 25 -51 27 -64
3z"/>
<path d="M5710 3405 c-26 -32 13 -81 48 -59 34 22 22 74 -18 74 -10 0 -23 -7
-30 -15z"/>
<path d="M4496 3337 c-11 -8 -17 -23 -14 -38 2 -19 9 -24 32 -24 40 0 56 27
32 54 -22 25 -26 25 -50 8z"/>
<path d="M5435 3261 c-9 -30 5 -51 35 -51 30 0 44 21 35 51 -4 13 -16 19 -35
19 -19 0 -31 -6 -35 -19z"/>
<path d="M4650 3185 c-26 -32 13 -81 48 -59 34 22 22 74 -18 74 -10 0 -23 -7
-30 -15z"/>
<path d="M4352 3168 c-28 -28 -1 -75 37 -63 11 3 23 15 26 26 12 38 -35 65
-63 37z"/>
</g>
</svg>
